HIERARCHY
ROOT Hips
{
    OFFSET 0.000000 0.000000 0.000000
    CHANNELS 6 Xposition Yposition Zposition Zrotation Xrotation Yrotation
    JOINT Spine
    {
        OFFSET -0.000000 8.505030 0.000000
        CHANNELS 3 Zrotation Xrotation Yrotation
        JOINT Spine1
        {
            OFFSET -0.000000 25.070629 0.000000
            CHANNELS 3 Zrotation Xrotation Yrotation
            JOINT Neck
            {
                OFFSET -0.000000 24.967667 2.269788
                CHANNELS 3 Zrotation Xrotation Yrotation
                JOINT Head
                {
                    OFFSET -0.000000 14.520781 -2.074397
                    CHANNELS 3 Zrotation Xrotation Yrotation
                    End Site
                    {
                        OFFSET -0.000000 25.929966 0.000000
                    }
                }
            }
            JOINT LeftShoulder
            {
                OFFSET 4.117346 22.983784 -0.389865
                CHANNELS 3 Zrotation Xrotation Yrotation
                JOINT LeftArm
                {
                    OFFSET 11.957758 0.000000 0.000000
                    CHANNELS 3 Zrotation Xrotation Yrotation
                    JOINT LeftForeArm
                    {
                        OFFSET 31.907600 0.000000 0.000000
                        CHANNELS 3 Zrotation Xrotation Yrotation
                        JOINT LeftHand
                        {
                            OFFSET 28.601147 0.000000 0.000000
                            CHANNELS 3 Zrotation Xrotation Yrotation
                            End Site
                            {
                                OFFSET 15.557981 0.000000 0.000000
                            }
                        }
                    }
                }
            }
            JOINT RightShoulder
            {
                OFFSET -4.061940 22.983784 -0.389865
                CHANNELS 3 Zrotation Xrotation Yrotation
                JOINT RightArm
                {
                    OFFSET -11.957758 0.000000 0.000000
                    CHANNELS 3 Zrotation Xrotation Yrotation
                    JOINT RightForeArm
                    {
                        OFFSET -31.907600 0.000000 0.000000
                        CHANNELS 3 Zrotation Xrotation Yrotation
                        JOINT RightHand
                        {
                            OFFSET -28.601147 0.000000 0.000000
                            CHANNELS 3 Zrotation Xrotation Yrotation
                            End Site
                            {
                                OFFSET -15.557981 0.000000 0.000000
                            }
                        }
                    }
                }
            }
        }
    }
    JOINT LeftUpLeg
    {
        OFFSET 10.371986 0.000000 0.000000
        CHANNELS 3 Zrotation Xrotation Yrotation
        JOINT LeftLeg
        {
            OFFSET -0.000000 -42.486427 0.000000
            CHANNELS 3 Zrotation Xrotation Yrotation
            JOINT LeftFoot
            {
                OFFSET -0.000000 -48.322342 0.000000
                CHANNELS 3 Zrotation Xrotation Yrotation
                JOINT LeftToeBase
                {
                    OFFSET -0.000000 -6.741791 15.557981
                    CHANNELS 3 Zrotation Xrotation Yrotation
                    End Site
                    {
                        OFFSET -0.000000 0.000000 4.148795
                    }
                }
            }
        }
    }
    JOINT RightUpLeg
    {
        OFFSET -10.371986 0.000000 0.000000
        CHANNELS 3 Zrotation Xrotation Yrotation
        JOINT RightLeg
        {
            OFFSET -0.000000 -42.486427 0.000000
            CHANNELS 3 Zrotation Xrotation Yrotation
            JOINT RightFoot
            {
                OFFSET -0.000000 -48.322342 0.000000
                CHANNELS 3 Zrotation Xrotation Yrotation
                JOINT RightToeBase
                {
                    OFFSET -0.000000 -6.741791 15.557981
                    CHANNELS 3 Zrotation Xrotation Yrotation
                    End Site
                    {
                        OFFSET -0.000000 0.000000 4.148795
                    }
                }
            }
        }
    }
}
MOTION
Frames:    12
Frame Time:    0.008333
147.021729    97.580193    68.432213    -3.333122    -4.378788    94.313904    3.483977    -4.017424    0.817513    4.593766    1.433678    0.637738    -3.328077    24.284349    -0.105576    -0.712894    -0.545076    -0.473988    4.901936    2.701544    -4.124881    -70.805542    40.288280    6.774918    11.042593    -15.306434    -75.749161    -10.274982    -7.251597    4.562328    -14.775466    8.238101    -16.589605    64.716621    42.278946    5.837312    -17.851095    -19.301531    52.989269    22.740040    -10.643693    -0.084477    10.345714    -30.552900    11.905203    -2.113979    29.509153    4.486928    -10.078300    10.510012    3.209380    0.000000    0.000000    0.000000    -0.825740    -31.199114    2.222859    4.659923    24.655491    -7.361366    13.981635    16.474894    -7.535573    0.000000    0.000000    0.000000    
148.410339    95.763252    68.443939    -2.538655    -4.318968    94.354874    3.357333    -3.624322    0.798492    4.698735    1.111471    0.646663    -3.265272    24.021877    -0.149242    -0.590204    0.513976    -0.482587    4.835576    2.737987    -4.179915    -70.782516    40.484150    6.529440    10.538808    -14.663546    -75.090675    -9.658499    -7.028607    4.214118    -14.917610    8.360690    -16.491697    65.125557    42.785507    5.326787    -17.556435    -19.148006    52.852806    22.922539    -10.696283    -0.272267    10.660826    -31.082539    12.431395    -1.707666    33.630196    1.920794    -7.767735    3.829992    3.520878    0.000000    0.000000    0.000000    -0.936020    -31.808105    0.829673    4.497933    27.736008    -5.722426    14.506575    11.521518    -7.602432    0.000000    0.000000    0.000000    
149.804108    93.859596    68.493881    -1.658581    -4.310276    94.342789    3.373180    -3.130404    0.758286    4.592862    0.729911    0.636844    -3.129832    24.545845    -0.070110    -0.497735    0.205537    -0.394739    4.737640    2.708785    -4.240793    -70.683182    40.673080    6.456660    9.992852    -14.158311    -74.421715    -9.271875    -6.979540    3.825395    -15.021987    8.617663    -16.186857    65.459496    42.840260    5.202497    -16.955223    -18.544844    52.487698    23.391182    -10.437805    -0.261179    11.077389    -31.456949    13.162774    -1.060017    37.701794    -0.803050    -5.234302    -2.572834    4.481357    0.000000    0.000000    0.000000    -0.852612    -32.466354    -0.190356    4.353013    31.529737    -3.798404    10.786589    5.773898    -6.486927    0.000000    0.000000    0.000000    
151.166718    91.925095    68.523117    -0.776998    -4.216400    94.396599    3.399487    -2.539799    0.623754    4.368149    0.234758    0.539309    -3.026279    24.973034    0.140048    -0.465025    0.212192    -0.175998    4.499976    2.560156    -4.178986    -70.715775    41.088329    6.591009    9.482810    -14.113255    -73.418640    -9.230829    -7.393952    3.121749    -15.124430    8.512864    -15.786836    65.931740    43.064835    4.837931    -16.018425    -17.927896    52.025581    23.560337    -10.317880    -0.127897    11.287347    -31.685732    13.473120    -0.509094    41.537739    -2.899183    -1.772699    -8.837317    5.720942    0.000000    0.000000    0.000000    -0.857611    -33.175266    -1.046838    4.129629    35.523430    -1.785807    8.164062    0.004804    -6.450617    0.000000    0.000000    0.000000    
152.450424    90.015068    68.563454    0.137246    -4.180377    94.490204    3.422685    -1.887679    0.491664    4.283843    -0.277337    0.445714    -3.367313    25.771345    0.309529    0.086235    -0.363456    0.028692    4.138752    2.121622    -4.412304    -70.705009    41.253590    6.900809    8.383992    -13.768651    -72.264252    -9.117996    -7.906725    2.085804    -15.227040    8.362429    -15.307805    66.324951    43.122978    4.611610    -14.725093    -17.220978    51.338341    23.285118    -10.268852    0.179933    11.495753    -31.833836    13.542046    -0.126494    45.163906    -4.037219    1.415534    -14.419893    7.196386    0.000000    0.000000    0.000000    -0.779465    -33.792648    -1.529182    4.020114    39.643600    -0.049788    6.023530    -5.638585    -7.174561    0.000000    0.000000    0.000000    
153.740173    88.065155    68.683167    1.019060    -4.462247    94.474365    3.370606    -1.409850    0.463493    4.983984    -0.516641    0.444651    -4.107940    26.309977    0.549058    0.620469    -0.726911    0.261654    3.114301    1.674069    -4.836122    -70.903000    41.895897    7.378536    8.023749    -14.463159    -70.376839    -9.703593    -8.958868    0.562423    -15.599862    8.154344    -15.240285    66.297592    43.515259    4.931342    -13.495002    -16.266418    50.152077    23.404602    -9.888087    0.973929    12.252502    -32.377201    14.242471    0.733174    49.876297    -5.250329    4.476430    -19.809422    8.594914    0.000000    0.000000    0.000000    -0.113429    -34.577747    -1.856688    3.797480    44.252224    1.142694    2.937690    -10.896664    -7.767742    0.000000    0.000000    0.000000    
154.816650    86.288391    68.868546    1.523899    -4.887716    94.657700    3.088077    -1.337229    0.359781    6.320118    -0.265339    0.338299    -5.298416    26.568447    0.817096    1.328981    -1.487892    0.523967    1.685925    1.299956    -5.166885    -69.826912    41.505875    6.403354    6.394576    -13.792324    -68.057251    -9.718966    -9.450148    -1.292887    -16.277544    7.486049    -15.449414    66.670532    44.284405    5.344462    -12.589838    -15.673172    48.127747    23.651552    -9.667319    2.433808    13.149516    -33.885860    15.257353    3.052729    54.626400    -7.560841    5.660491    -23.255339    9.405113    0.000000    0.000000    0.000000    0.768113    -36.098206    -2.481928    2.646429    48.998493    2.118139    2.099337    -14.692444    -7.917838    0.000000    0.000000    0.000000    
155.619934    84.852692    69.066177    1.377565    -5.374654    95.050865    3.005252    -2.083645    0.256922    6.970667    0.627178    0.164168    -5.130104    25.901756    0.712963    1.201295    -1.375834    0.445916    1.227298    0.881845    -5.815827    -69.457001    41.260487    5.025849    5.498750    -13.897282    -64.946808    -10.486642    -10.164324    -3.423698    -16.036293    6.811310    -15.739839    66.242256    44.888306    6.447615    -11.549578    -15.250827    45.562336    24.254450    -9.561406    4.457481    13.838697    -36.390228    15.080417    4.844846    58.984993    -8.289689    5.200789    -25.096132    9.044871    0.000000    0.000000    0.000000    1.491843    -38.432610    -2.406438    2.258290    53.426662    1.391574    2.391482    -16.868063    -7.595681    0.000000    0.000000    0.000000    
156.375336    83.713127    69.205154    0.674127    -5.676857    95.355194    2.803578    -3.422946    0.129153    7.450039    1.239078    -0.034919    -5.198150    26.280472    0.640964    1.316263    -1.872969    0.368410    0.625294    1.455296    -6.778790    -68.775993    40.738853    3.104452    5.323952    -14.788225    -60.997093    -12.551217    -11.025399    -6.560627    -15.429194    6.727597    -15.473932    65.673744    44.604462    7.970066    -10.438025    -14.802353    42.444790    25.227659    -9.346760    6.762658    14.176778    -39.318390    14.581797    6.502510    63.007935    -8.463701    2.990915    -25.858171    7.735536    0.000000    0.000000    0.000000    1.859565    -41.112915    -1.725184    2.945399    57.385139    -0.498564    3.247904    -18.132612    -6.952512    0.000000    0.000000    0.000000    
157.351868    82.731171    69.332977    0.546188    -5.892170    95.550919    2.645607    -4.526305    -0.122883    7.717414    2.315103    -0.383576    -5.309636    26.566940    0.839039    1.446954    -2.509518    0.576874    0.534056    1.774283    -7.335545    -68.529022    40.116482    1.437868    5.166445    -15.395382    -57.212280    -15.125989    -11.424675    -9.490843    -15.070152    6.696316    -14.942258    65.246902    45.485329    9.741685    -9.983185    -15.190174    39.043301    26.569836    -9.587300    9.251951    14.600778    -41.125854    13.998166    7.198726    66.538887    -8.209183    0.821841    -26.469559    6.796123    0.000000    0.000000    0.000000    2.134380    -42.601166    -0.648367    4.828476    60.583408    -2.720193    3.893542    -19.523178    -6.903960    0.000000    0.000000    0.000000    
158.383484    81.871758    69.428406    1.004039    -5.856896    95.784042    2.461546    -4.974788    -0.453077    7.708223    3.433346    -0.791380    -5.515549    26.355764    1.147309    1.670592    -2.531934    0.925546    0.666468    1.819724    -7.162727    -68.282181    40.383553    -0.359212    5.470379    -16.060902    -53.439625    -17.586958    -11.582514    -11.960922    -14.992760    6.486238    -14.509595    65.205078    45.479294    11.428725    -8.563458    -14.777342    36.286282    26.567202    -9.481258    11.008085    14.691293    -41.778389    12.895452    6.357587    69.399940    -6.828069    -0.285088    -27.236137    6.525684    0.000000    0.000000    0.000000    2.319155    -43.084572    -0.059636    5.928470    63.241356    -4.085547    4.232859    -21.013342    -6.908700    0.000000    0.000000    0.000000    
159.487030    81.086929    69.506500    1.943907    -5.771341    96.083809    2.250396    -4.683345    -0.702640    7.750447    3.984665    -1.064855    -5.443681    26.638641    1.352685    1.508332    -2.668766    1.106002    0.747053    2.099725    -6.942544    -67.903633    41.050102    -2.280352    5.930413    -16.476254    -49.921730    -19.045040    -11.590306    -13.495565    -14.822824    6.340148    -14.245951    65.295433    46.247604    12.658352    -8.327563    -14.371708    33.534794    26.970318    -8.990820    12.388453    14.567739    -41.443523    12.090932    6.271272    71.577583    -6.757272    -0.621174    -28.493275    7.015191    0.000000    0.000000    0.000000    2.503343    -42.764698    0.310157    7.012676    65.523094    -5.178411    4.071217    -22.594130    -7.344476    0.000000    0.000000    0.000000    
